<?xml version="1.0" encoding="UTF-8"?>
<svg width="24" height="24" viewBox="0 0 24 24" xmlns="http://www.w3.org/2000/svg" role="img" aria-hidden="true">
  <title>Instagram</title>
  <path fill="#ffffff" d="M12 2.163c3.204 0 3.584.012 4.85.07 1.206.056 1.97.246 2.428.415.59.222 1.01.488 1.453.93.444.444.71.864.932 1.454.168.459.358 1.223.414 2.429.059 1.267.071 1.646.071 4.85s-.012 3.584-.071 4.85c-.056 1.206-.246 1.97-.414 2.429-.222.59-.488 1.01-.932 1.453-.444.444-.864.71-1.454.932-.459.168-1.223.358-2.429.414-1.267.059-1.646.071-4.85.071s-3.584-.012-4.85-.071c-1.206-.056-1.97-.246-2.429-.414-.59-.222-1.01-.488-1.453-.932-.444-.444-.71-.864-.932-1.454-.168-.459-.358-1.223-.414-2.429C2.175 15.584 2.163 15.204 2.163 12s.012-3.584.071-4.85c.056-1.206.246-1.97.414-2.429.222-.59.488-1.01.932-1.453.444-.444.864-.71 1.454-.932.459-.168 1.223-.358 2.429-.414C8.416 2.175 8.796 2.163 12 2.163zm0-2.163C8.736 0 8.332.013 7.052.072 5.776.13 4.88.333 4.1.637c-.88.36-1.63.84-2.378 1.588C.975 3.875.495 4.624.136 5.504c-.304.78-.507 1.676-.565 2.952C-.013 10.332 0 10.736 0 12s.013 1.668.072 2.948c.058 1.276.261 2.172.565 2.952.36.88.84 1.63 1.588 2.378.749.748 1.498 1.229 2.378 1.588.78.304 1.676.507 2.952.565 1.28.059 1.684.072 2.948.072s1.668-.013 2.948-.072c1.276-.058 2.172-.261 2.952-.565.88-.36 1.63-.84 2.378-1.588.748-.749 1.229-1.498 1.588-2.378.304-.78.507-1.676.565-2.952.059-1.28.072-1.684.072-2.948s-.013-1.668-.072-2.948c-.058-1.276-.261-2.172-.565-2.952-.36-.88-.84-1.63-1.588-2.378C20.63.975 19.881.495 19.001.136c-.78-.304-1.676-.507-2.952-.565C13.668.013 13.264 0 12 0zM12 5.838a6.162 6.162 0 100 12.324 6.162 6.162 0 000-12.324zm0 10.162a3.999 3.999 0 110-7.998 3.999 3.999 0 010 7.998zm6.406-11.845a1.44 1.44 0 11-2.881 0 1.44 1.44 0 012.881 0z"/>
</svg>