<?xml version="1.0" encoding="UTF-8"?>
<svg width="24" height="24" viewBox="0 0 24 24" xmlns="http://www.w3.org/2000/svg" role="img" aria-hidden="true">
  <title>LinkedIn</title>
  <path fill="#ffffff" d="M20.447 20.452H17.21v-5.569c0-1.328-.027-3.036-1.85-3.036-1.852 0-2.135 1.445-2.135 2.94v5.665H9.009V9h3.051v1.561h.043c.425-.803 1.464-1.65 3.012-1.65 3.223 0 3.818 2.122 3.818 4.879v6.662zM5.337 7.433a1.767 1.767 0 110-3.534 1.767 1.767 0 010 3.534zM6.987 20.452H3.687V9h3.3v11.452zM22.225 0H1.771C.792 0 0 .774 0 1.732v20.535C0 23.226.792 24 1.771 24h20.451C23.206 24 24 23.226 24 22.268V1.732C24 .774 23.206 0 22.225 0z"/>
</svg>