<?xml version="1.0" encoding="UTF-8"?>
<svg width="24" height="24" viewBox="0 0 24 24" xmlns="http://www.w3.org/2000/svg" role="img" aria-hidden="true">
  <title>WhatsApp</title>
  <path fill="#ffffff" d="M20.5 3.5A11.9 11.9 0 0012 0C5.373 0 .001 5.373.001 12c0 2.116.555 4.145 1.606 5.94L0 24l6.202-1.601A11.945 11.945 0 0012 24c6.627 0 12-5.373 12-12 0-1.948-.486-3.78-1.5-5.4zM12 21.6c-1.756 0-3.45-.477-4.94-1.376l-.354-.21L4.2 20l.99-2.486-.21-.355A9.6 9.6 0 012.4 12 9.6 9.6 0 1112 21.6zM17.1 14.2c-.25-.125-1.48-.73-1.71-.815-.23-.085-.4-.125-.57.125-.18.25-.7.815-.86.985-.16.17-.32.19-.58.06-.26-.125-1.1-.405-2.09-1.29-.77-.68-1.29-1.52-1.44-1.78-.15-.265-.016-.41.116-.535.12-.12.27-.32.405-.48.13-.16.17-.28.26-.47.085-.19.042-.355-.02-.48-.06-.125-.57-1.37-.78-1.88-.2-.49-.4-.42-.57-.43-.15-.01-.32-.01-.49-.01s-.48.07-.73.355c-.25.29-.95.93-.95 2.25 0 1.32.98 2.6 1.12 2.78.13.18 1.94 3 4.7 4.2 1.31.56 2.33.9 3.13 1.15.84.26 1.61.22 2.22.135.68-.095 1.48-.6 1.69-1.18.21-.58.21-1.08.15-1.18-.06-.1-.22-.16-.48-.285z"/>
</svg>