<?xml version="1.0" encoding="UTF-8"?>
<svg width="24" height="24" viewBox="0 0 24 24" xmlns="http://www.w3.org/2000/svg" role="img" aria-hidden="true">
  <title>YouTube</title>
  <path fill="#ffffff" d="M23.499 6.203a2.998 2.998 0 00-2.108-2.118C19.86 3.5 12 3.5 12 3.5s-7.86 0-9.39.585A2.998 2.998 0 00.502 6.203 31.02 31.02 0 000 12a31.02 31.02 0 00.502 5.797 2.998 2.998 0 002.108 2.118C4.14 20.5 12 20.5 12 20.5s7.86 0 9.39-.585a2.998 2.998 0 002.108-2.118A31.02 31.02 0 0024 12a31.02 31.02 0 00-.501-5.797zM9.75 15.02V8.98L15.5 12l-5.75 3.02z"/>
</svg>